<svg xmlns="http://www.w3.org/2000/svg" xmlns:xlink="http://www.w3.org/1999/xlink" width="86.817" height="85.056" viewBox="0 0 86.817 85.056">
  <defs>
    <linearGradient id="linear-gradient" x1="0.5" x2="1" y2="1" gradientUnits="objectBoundingBox">
      <stop offset="0" stop-color="#fdc830"/>
      <stop offset="1" stop-color="#f37335"/>
    </linearGradient>
    <clipPath id="clip-path">
      <circle id="Mask" cx="31.72" cy="31.72" r="31.72" transform="matrix(0.788, 0.616, -0.616, 0.788, 39.333, 0.276)" fill="none"/>
    </clipPath>
  </defs>
  <g id="_3" data-name="3" transform="matrix(0.966, -0.259, 0.259, 0.966, -32.76, -3.772)" opacity="0.6">
    <circle id="_1" data-name="1" cx="33.5" cy="33.5" r="33.5" transform="translate(30 33)" fill="url(#linear-gradient)"/>
    <g id="_2" data-name="2" transform="matrix(-0.966, 0.259, -0.259, -0.966, 110.869, 87.678)" opacity="0.3">
      <circle id="Mask-2" data-name="Mask" cx="31.72" cy="31.72" r="31.72" transform="matrix(0.788, 0.616, -0.616, 0.788, 39.333, 0.276)" fill="none"/>
      <g id="_2-2" data-name="2" clip-path="url(#clip-path)">
        <g id="lines" transform="translate(10.497 16.539)">
          <rect id="_1-2" data-name="1" width="70.674" height="7.004" transform="translate(1.111 0.128)" fill="#155799"/>
          <rect id="_2-3" data-name="2" width="70.674" height="7.004" transform="translate(1.21 13.755)" fill="#155799"/>
          <rect id="_3-2" data-name="3" width="70.674" height="7.004" transform="translate(1.31 27.381)" fill="#155799"/>
          <rect id="_4" data-name="4" width="70.674" height="7.004" transform="translate(0.098 41.641)" fill="#155799"/>
          <rect id="_5" data-name="5" width="70.674" height="7.004" transform="translate(0.197 55.268)" fill="#155799"/>
        </g>
      </g>
    </g>
  </g>
</svg>
