<svg xmlns="http://www.w3.org/2000/svg" xmlns:xlink="http://www.w3.org/1999/xlink" width="48" height="48" viewBox="0 0 48 48">
  <defs>
    <linearGradient id="linear-gradient" x1="0.5" x2="0.5" y2="1" gradientUnits="objectBoundingBox">
      <stop offset="0" stop-color="#fdc830"/>
      <stop offset="1" stop-color="#f37335"/>
    </linearGradient>
  </defs>
  <g id="_24-hours" data-name="24-hours" transform="translate(0 0)">
    <path id="Shape" d="M2.524,11.881A3.008,3.008,0,0,1,2.9,10.422L.279,7.9a.9.9,0,0,1,0-1.3.979.979,0,0,1,1.347,0L4.248,9.124A3.251,3.251,0,0,1,4.81,8.9V.917a.953.953,0,0,1,1.9,0V8.9A3.141,3.141,0,0,1,9,11.881,3.184,3.184,0,0,1,5.762,15,3.184,3.184,0,0,1,2.524,11.881Z" transform="translate(18 12)" fill="url(#linear-gradient)"/>
    <path id="Path" d="M4.129,6.182H1.742V5.545a.624.624,0,0,1,.61-.636h.3A2.408,2.408,0,0,0,5,2.455,2.408,2.408,0,0,0,2.648,0H.871A.891.891,0,0,0,0,.909a.891.891,0,0,0,.871.909H2.648a.637.637,0,0,1,0,1.273h-.3A2.408,2.408,0,0,0,0,5.545V7.091A.891.891,0,0,0,.871,8H4.129a.91.91,0,0,0,0-1.818Z" transform="translate(30 13)" fill="url(#linear-gradient)"/>
    <path id="Path-2" data-name="Path" d="M4.129,0a.936.936,0,0,0-.871.989V3.7H1.742V.989A.936.936,0,0,0,.871,0,.936.936,0,0,0,0,.989v3.7a.936.936,0,0,0,.871.989H3.258V8.011A.936.936,0,0,0,4.129,9,.936.936,0,0,0,5,8.011V.989A.936.936,0,0,0,4.129,0Z" transform="translate(37 13)" fill="url(#linear-gradient)"/>
    <path id="Path-3" data-name="Path" d="M1.905,3.322H1.742V.989A.936.936,0,0,0,.871,0,.936.936,0,0,0,0,.989V8.011A.936.936,0,0,0,.871,9a.936.936,0,0,0,.871-.989V5.3h.163A1.455,1.455,0,0,1,3.258,6.837V8.011A.936.936,0,0,0,4.129,9,.936.936,0,0,0,5,8.011V6.837A3.328,3.328,0,0,0,1.905,3.322Z" transform="translate(43 13)" fill="url(#linear-gradient)"/>
    <path id="Path-4" data-name="Path" d="M1.707.293a1,1,0,0,0-1.414,0A1,1,0,1,0,1.707,1.707a1,1,0,0,0,0-1.414Z" transform="translate(23 39)" fill="url(#linear-gradient)"/>
    <path id="Path-5" data-name="Path" d="M1.707.293A1,1,0,1,0,.293,1.707a1,1,0,0,0,1.414,0,1,1,0,0,0,0-1.414Z" transform="translate(12 34)" fill="url(#linear-gradient)"/>
    <path id="Path-6" data-name="Path" d="M1.707.293A1,1,0,1,0,.293,1.707a1,1,0,0,0,1.414,0,1,1,0,0,0,0-1.414Z" transform="translate(7 23)" fill="url(#linear-gradient)"/>
    <path id="Path-7" data-name="Path" d="M1.707.293A1,1,0,0,0,0,1,1,1,0,0,0,1,2,1,1,0,0,0,2,1,1.007,1.007,0,0,0,1.707.293Z" transform="translate(12 12)" fill="url(#linear-gradient)"/>
    <path id="Path-8" data-name="Path" d="M1.707.293A1,1,0,1,0,2,1,1,1,0,0,0,1.707.293Z" transform="translate(23 7)" fill="url(#linear-gradient)"/>
    <path id="Path-9" data-name="Path" d="M1.707.293a1,1,0,0,0-1.415,0,1,1,0,0,0,0,1.414,1,1,0,0,0,1.415,0,1,1,0,0,0,0-1.414Z" transform="translate(34 34)" fill="url(#linear-gradient)"/>
    <path id="Path-10" data-name="Path" d="M47.063,23.063H42.75a.938.938,0,0,0-.937.938A17.794,17.794,0,1,1,30.159,7.281L28.821,8.618a.938.938,0,0,0,.663,1.6h8.31a.938.938,0,0,0,.938-.938V.971a.938.938,0,0,0-1.6-.663l-2.28,2.28A24.057,24.057,0,0,0,24.186,0,23.728,23.728,0,0,0,9.9,4.635a.938.938,0,1,0,1.108,1.513A21.844,21.844,0,0,1,24,1.875h.17A22.153,22.153,0,0,1,34.577,4.562a.937.937,0,0,0,1.112-.16l1.168-1.168V8.344H31.748l.729-.729A.938.938,0,0,0,32.205,6.1,19.7,19.7,0,0,0,10.067,37.933a19.7,19.7,0,0,0,33.6-13h2.44A22.125,22.125,0,0,1,1.875,24,21.873,21.873,0,0,1,5.73,11.6.937.937,0,1,0,4.183,10.54,23.964,23.964,0,0,0,24,48,24,24,0,0,0,48,24,.937.937,0,0,0,47.063,23.063Z" fill="url(#linear-gradient)"/>
    <path id="Path-11" data-name="Path" d="M1.708.291A1,1,0,0,0,.3.291L.28.312A.995.995,0,1,0,1.707,1.7L1,.994l.7.7A.993.993,0,0,0,1.708.291Z" transform="translate(7 7)" fill="url(#linear-gradient)"/>
    <path id="Path-12" data-name="Path" d="M12.091,11.182A10.284,10.284,0,0,1,1.818.909.909.909,0,0,0,0,.909,12.1,12.1,0,0,0,12.091,13a.909.909,0,0,0,0-1.818Z" transform="translate(12 23)" fill="url(#linear-gradient)"/>
  </g>
</svg>
