<svg id="atom" xmlns="http://www.w3.org/2000/svg" xmlns:xlink="http://www.w3.org/1999/xlink" width="33.538" height="38" viewBox="0 0 33.538 38">
  <defs>
    <linearGradient id="linear-gradient" x1="0.5" x2="0.5" y2="1" gradientUnits="objectBoundingBox">
      <stop offset="0" stop-color="#fdc830"/>
      <stop offset="1" stop-color="#f37335"/>
    </linearGradient>
  </defs>
  <path id="Shape" d="M0,3.711A3.711,3.711,0,1,1,3.711,7.422,3.715,3.715,0,0,1,0,3.711Z" transform="translate(13.26 15.289)" fill="url(#linear-gradient)"/>
  <path id="Shape-2" data-name="Shape" d="M14.286,36.51a.742.742,0,1,1,1.139-.95,2.163,2.163,0,0,0,1.546.956c2.1,0,3.62-5.088,4.1-7.124a45.506,45.506,0,0,1-5.284-2.273c-1.056.479-2.1.909-3.123,1.281.094.462.194.913.3,1.345a.742.742,0,1,1-1.442.355c-.1-.392-.187-.8-.274-1.214a27.278,27.278,0,0,1-3.562.9,2.225,2.225,0,0,1-4.009.326,2.166,2.166,0,0,1-.1-.2A3.61,3.61,0,0,1,.9,28.277c-1.526-2.641,1.736-6.464,3.929-8.585-4.025-3.717-5.643-7-4.445-9.076,1.674-2.9,7.447-1.558,10.635-.51a29.957,29.957,0,0,1,1.259-4.984A2.226,2.226,0,0,1,14,1.484a2.132,2.132,0,0,1,.228.013A3.613,3.613,0,0,1,16.971,0C20.3,0,22.025,5.877,22.7,9.126c3.134-1,8.8-2.254,10.447.6,1.752,3.036-2.811,7.646-5.485,9.929a26.888,26.888,0,0,1,2.878,2.9,2.225,2.225,0,0,1,2.289,3.309,1.934,1.934,0,0,1-.125.191,3.613,3.613,0,0,1-.073,3.122c-1.615,2.8-7.057,1.646-10.151.689-.723,3.034-2.41,8.14-5.51,8.14A3.532,3.532,0,0,1,14.286,36.51Z" fill="url(#linear-gradient)"/>
  <circle id="Oval" cx="0.742" cy="0.742" r="0.742" transform="translate(12.518 32.359)" fill="url(#linear-gradient)"/>
</svg>
