<svg id="education" xmlns="http://www.w3.org/2000/svg" width="38" height="38" viewBox="0 0 38 38">
  <path id="Shape" d="M31.033,38H.634A.633.633,0,0,1,0,37.367V28.5a.633.633,0,0,1,.634-.634H5.067V13.935L.328,11.32a.632.632,0,0,1,0-1.108L18.694.079a.632.632,0,0,1,.612,0L37.672,10.212a.632.632,0,0,1,0,1.108l-.939.519v6.644A1.9,1.9,0,0,1,38,20.266v5.067a.634.634,0,0,1-.633.634H34.834a.634.634,0,0,1-.634-.634V20.266a1.9,1.9,0,0,1,1.266-1.783V12.538l-2.533,1.4V27.866h4.433A.633.633,0,0,1,38,28.5v8.867a.633.633,0,0,1-.633.633Z" fill="#3365a6"/>
  <path id="Path" d="M0,0H1.152V1.152H0Z" transform="translate(11.515 24.757)" fill="#3365a6"/>
  <path id="Path-2" data-name="Path" d="M0,0H1.152V1.152H0Z" transform="translate(13.818 24.757)" fill="#3365a6"/>
  <path id="Path-3" data-name="Path" d="M0,0H1.152V1.152H0Z" transform="translate(16.697 24.757)" fill="#3365a6"/>
  <path id="Shape-2" data-name="Shape" d="M0,2.015C0,.886,1.138,0,2.591,0S5.182.886,5.182,2.015,4.044,4.03,2.591,4.03,0,3.145,0,2.015Z" transform="translate(16.697 8.636)" fill="#3365a6"/>
</svg>
