<svg id="mortarboard" xmlns="http://www.w3.org/2000/svg" width="74.176" height="44.718" viewBox="0 0 74.176 44.718">
  <path id="Shape" d="M32.633,44.119A58.111,58.111,0,0,1,15.8,36.509a3.39,3.39,0,0,1-1.378-4.183A79.178,79.178,0,0,0,18.379,20.6l-17.2-7.21a1.732,1.732,0,0,1,.25-3.347L34.94.3a7.789,7.789,0,0,1,4.295,0L52.259,4.087a.911.911,0,0,1,.682,1.184,1.138,1.138,0,0,1-1.378.587L38.539,2.073a5.261,5.261,0,0,0-2.9,0L2.276,11.767,35.1,25.529a5.176,5.176,0,0,0,3.973,0l22.783-9.552L41.437,11.388a2.861,2.861,0,0,1-2.459,1.262H35.2a2.618,2.618,0,0,1-2.8-2.362v-.021a3.8,3.8,0,0,1,1.475-2.934c2.707-2.191,7.116-.9,7.812,2.18l21.9,4.921a3.6,3.6,0,0,1,1.011.394l7.3-3.061L56.391,7.26a.911.911,0,0,1-.682-1.184,1.137,1.137,0,0,1,1.377-.587L72.744,10.04a1.731,1.731,0,0,1,.25,3.347l-7.083,2.969a2.477,2.477,0,0,1,.147.83V31.269a2.484,2.484,0,0,1,2.476,2.3v2.723a1.3,1.3,0,0,1-.528,1.021l.4,5.248a1.918,1.918,0,0,1-2.063,1.9H63.6a1.919,1.919,0,0,1-2.065-1.9l.4-5.248a1.3,1.3,0,0,1-.528-1.021V33.566a2.483,2.483,0,0,1,2.476-2.3V17.206L55.795,20.6a79.272,79.272,0,0,0,3.961,11.728,3.39,3.39,0,0,1-1.377,4.183,58.13,58.13,0,0,1-16.838,7.611,16.868,16.868,0,0,1-8.907,0Z" transform="translate(0)" fill="#f2a71b"/>
</svg>
