<svg id="mark" xmlns="http://www.w3.org/2000/svg" xmlns:xlink="http://www.w3.org/1999/xlink" width="81.702" height="79.3" viewBox="0 0 81.702 79.3">
  <defs>
    <clipPath id="clip-path">
      <rect id="Rectangle_4" data-name="Rectangle 4" width="81.702" height="79.3" fill="none"/>
    </clipPath>
  </defs>
  <g id="Group_9" data-name="Group 9" transform="translate(0 0)">
    <g id="Group_8" data-name="Group 8" clip-path="url(#clip-path)">
      <g id="Group_7" data-name="Group 7">
        <g id="Group_6" data-name="Group 6" clip-path="url(#clip-path)">
          <path id="Path_7" data-name="Path 7" d="M106.277,110.231a21.366,21.366,0,0,0,0-30.852,17.247,17.247,0,0,1,8.27-2.127c.232,0,.47.03.7.04a29.6,29.6,0,0,1-.011,35.044c-.231.01-.461.025-.693.025a17.264,17.264,0,0,1-8.266-2.13" transform="translate(-62.222 -45.052)" fill="#f0a71b"/>
          <path id="Path_8" data-name="Path 8" d="M29.381,48.487a29.193,29.193,0,0,1,6.3.69,33.09,33.09,0,0,0-8.974,7.67,21.368,21.368,0,0,0,.05,42.376,33.5,33.5,0,0,0,8.991,7.647,29.523,29.523,0,1,1-6.363-58.384" transform="translate(0 -28.277)" fill="#f0a71b"/>
          <path id="Path_9" data-name="Path 9" d="M88.317,56.659A21.3,21.3,0,0,0,67.75,72.737a17.8,17.8,0,0,1-6.27-6.708A29.227,29.227,0,0,1,91.73,48.692a17.491,17.491,0,0,1,2.56,8.841,21.047,21.047,0,0,0-5.973-.874" transform="translate(-35.996 -28.277)" fill="#c1c1c1"/>
          <path id="Path_10" data-name="Path 10" d="M69.432,104.191a21.271,21.271,0,0,0,36.64-21.028,33.383,33.383,0,0,0,2.148-11.525,29.446,29.446,0,1,1-49.811,28.486,32.8,32.8,0,0,0,11.024,4.067" transform="translate(-34.198 -41.778)" fill="#c1c1c1"/>
          <path id="Path_11" data-name="Path 11" d="M40.049,83.527a21.3,21.3,0,0,0,20.574,16.1,21.042,21.042,0,0,0,5.973-.874,17.357,17.357,0,0,1-2.571,8.842A29.227,29.227,0,0,1,33.77,90.224a17.6,17.6,0,0,1,6.279-6.7" transform="translate(-19.772 -48.711)" fill="#2f65a1"/>
          <path id="Path_12" data-name="Path 12" d="M58.868,0a29.563,29.563,0,0,1,21.7,49.445,33.282,33.282,0,0,0-2.158-11.5A21.25,21.25,0,0,0,41.788,16.878,32.821,32.821,0,0,0,30.773,20.9,29.453,29.453,0,0,1,58.868,0" transform="translate(-18.017 0)" fill="#2f65a1"/>
        </g>
      </g>
    </g>
  </g>
</svg>
